<svg xmlns="http://www.w3.org/2000/svg" viewBox="0 0 68.69863 57.79535"><title>footer-sperm-lines</title><path d="M51.27235,45.1573a5.42574,5.42574,0,0,1,1.19821,1.8301,6.872,6.872,0,0,1,.46522,1.89957,6.57959,6.57959,0,0,1-.09166,1.95233,5.29266,5.29266,0,0,1-.84157,2.02341,1.21912,1.21912,0,0,1-1.697.30426,1.31306,1.31306,0,0,1-.15567-.12869A5.29269,5.29269,0,0,1,48.94317,51.209a6.57922,6.57922,0,0,1-.45676-1.90036,6.87185,6.87185,0,0,1,.10011-1.95312,5.42593,5.42593,0,0,1,.83312-2.02262,1.21145,1.21145,0,0,1,1.684-.31506A1.2974,1.2974,0,0,1,51.27235,45.1573Z" style="fill:#274ef4"/><path d="M21.88169,36.60117a34.29252,34.29252,0,0,1-4.77021,3.29334c-1.65171.96243-3.34554,1.83237-5.07535,2.62329A55.45416,55.45416,0,0,1,6.72894,44.632a33.23264,33.23264,0,0,1-5.61937,1.42868.96851.96851,0,0,1-1.09936-.81693A.97873.97873,0,0,1,.33829,44.367,33.2325,33.2325,0,0,1,5.105,41.0659a55.44274,55.44274,0,0,1,5.07888-2.61551c1.73221-.78568,3.5004-1.49231,5.31071-2.10648a34.29783,34.29783,0,0,1,5.61585-1.43637.96746.96746,0,0,1,.77127,1.69363Z" style="fill:#274ef4"/><path d="M35.45626,46.33649A13.37447,13.37447,0,0,1,34.35468,49.744a21.09346,21.09346,0,0,1-1.7086,2.99078,20.21278,20.21278,0,0,1-2.16978,2.67419,13,13,0,0,1-2.79081,2.2479,1.031,1.031,0,0,1-1.53431-1.05319,13.0002,13.0002,0,0,1,1.09458-3.4123,20.21421,20.21421,0,0,1,1.7156-2.986,21.09205,21.09205,0,0,1,2.17679-2.6694A13.37426,13.37426,0,0,1,33.922,45.28327a1.02813,1.02813,0,0,1,1.5343,1.05322Z" style="fill:#274ef4"/><path d="M63.4485,43.13535a13.37361,13.37361,0,0,1,2.252,2.78434,21.09213,21.09213,0,0,1,1.57129,3.06506,20.21473,20.21473,0,0,1,1.05418,3.27835,13.00029,13.00029,0,0,1,.3578,3.56555,1.031,1.031,0,0,1-1.72043.70957,12.99923,12.99923,0,0,1-2.2598-2.7811,20.21163,20.21163,0,0,1-1.56344-3.0683,21.09212,21.09212,0,0,1-1.04632-3.28159,13.37347,13.37347,0,0,1-.36565-3.56231,1.02812,1.02812,0,0,1,1.72042-.70957Z" style="fill:#274ef4"/><path d="M20.07366,21.17252a8.73,8.73,0,0,1-2.63926,1.08481,12.80971,12.80971,0,0,1-2.65719.3487,12.27123,12.27123,0,0,1-2.67081-.21048A8.496,8.496,0,0,1,9.41726,21.432a1.0922,1.0922,0,0,1-.395-1.49325,1.10834,1.10834,0,0,1,.34974-.36719A8.49631,8.49631,0,0,1,12.011,18.47828a12.27487,12.27487,0,0,1,2.65739-.34024,12.81165,12.81165,0,0,1,2.671.219,8.72967,8.72967,0,0,1,2.68894.95505,1.08771,1.08771,0,0,1,.40351,1.48438A1.10275,1.10275,0,0,1,20.07366,21.17252Z" style="fill:#274ef4"/><path d="M28.31387,8.47974A12.65744,12.65744,0,0,1,24.93981,7.632a19.81761,19.81761,0,0,1-2.9931-1.47785A18.98824,18.98824,0,0,1,19.243,4.19758a12.30483,12.30483,0,0,1-2.314-2.60114A1.03722,1.03722,0,0,1,17.89192.00388,12.30526,12.30526,0,0,1,21.27036.8444a18.98937,18.98937,0,0,1,2.98872,1.48511,19.81819,19.81819,0,0,1,2.6993,1.9638,12.65755,12.65755,0,0,1,2.31835,2.59387,1.03416,1.03416,0,0,1-.96286,1.59256Z" style="fill:#274ef4"/></svg>