<?xml version="1.0" encoding="UTF-8"?>
<svg width="82px" height="50px" viewBox="0 0 82 50" version="1.1" xmlns="http://www.w3.org/2000/svg" xmlns:xlink="http://www.w3.org/1999/xlink">
    <!-- Generator: Sketch 63.1 (92452) - https://sketch.com -->
    <title>Combined Shape</title>
    <desc>Created with Sketch.</desc>
    <g id="Design" stroke="none" stroke-width="1" fill="none" fill-rule="evenodd">
        <g id="Home" transform="translate(-860.000000, -7618.000000)" fill="#FAAFA5">
            <g id="Formula" transform="translate(301.000000, 7618.000000)">
                <path d="M624.711452,42.2903797 C627.214742,42.2903797 629.244243,43.9258228 629.244243,45.9432278 C629.244243,47.9606329 627.215066,49.5960759 624.711452,49.5960759 C623.297876,49.5960759 622.051098,49.063481 621.220022,48.2460759 L621.220022,48.2460759 L606.928814,46.9894304 C606.336254,46.9375316 605.899136,46.4264557 605.952681,45.8489241 C606.000059,45.335 606.419654,44.9413291 606.928814,44.8967089 L606.928814,44.8967089 L621.219697,43.6403797 C622.051098,42.8229747 623.297876,42.2903797 624.711452,42.2903797 Z M599.561731,35.5350949 C602.06502,35.5350949 604.094197,37.170538 604.094197,39.187943 C604.094522,41.2056646 602.06502,42.8411076 599.561731,42.8411076 C598.148154,42.8411076 596.901377,42.3085127 596.069976,41.4911076 L596.069976,41.4911076 L581.779093,40.234462 C581.186208,40.1822468 580.749415,39.6714873 580.802635,39.0936392 C580.850338,38.5800316 581.269933,38.1863608 581.779093,38.1417405 L581.779093,38.1417405 L596.069651,36.8854114 C596.901052,36.0676899 598.14783,35.5350949 599.561731,35.5350949 Z M635.869264,28.1935759 C638.372554,28.1935759 640.402055,29.829019 640.402055,31.8464241 C640.402055,33.8638291 638.372554,35.4995886 635.869264,35.4995886 C634.455687,35.4995886 633.208586,34.9666772 632.377509,34.1492722 L632.377509,34.1492722 L618.086626,32.892943 C617.493742,32.8407278 617.056948,32.3299684 617.110168,31.7521203 C617.157871,31.2381962 617.577466,30.8445253 618.086626,30.8002215 L618.086626,30.8002215 L632.377509,29.5435759 C633.208586,28.7261709 634.455687,28.1935759 635.869264,28.1935759 Z M578.263486,21.6901266 C580.766776,21.6901266 582.795953,23.3255696 582.795953,25.3432911 C582.795953,27.3606962 580.766776,28.9961392 578.263486,28.9961392 C576.849585,28.9961392 575.602808,28.4635443 574.771407,27.6461392 L574.771407,27.6461392 L560.480524,26.3894937 C559.887964,26.3372785 559.45117,25.826519 559.50439,25.2486709 C559.552094,24.7350633 559.971688,24.3413924 560.480524,24.2967722 L560.480524,24.2967722 L574.771407,23.0401266 C575.602808,22.2227215 576.849585,21.6901266 578.263486,21.6901266 Z M608.627021,21.6901266 C611.130311,21.6901266 613.159487,23.3255696 613.159487,25.3432911 C613.159812,27.3606962 611.130311,28.9961392 608.627021,28.9961392 C607.21312,28.9961392 605.966667,28.4635443 605.135266,27.6461392 L605.135266,27.6461392 L590.844383,26.3894937 C590.251823,26.3372785 589.814705,25.826519 589.867925,25.2486709 C589.915628,24.7350633 590.335223,24.3413924 590.844383,24.2967722 L590.844383,24.2967722 L605.135266,23.0401266 C605.966343,22.2227215 607.21312,21.6901266 608.627021,21.6901266 Z M635.869167,14.0968671 C638.372456,14.0968671 640.401958,15.7323101 640.401958,17.7500316 C640.401958,19.7674367 638.372456,21.4028797 635.869167,21.4028797 C634.45559,21.4028797 633.208813,20.8702848 632.377736,20.0528797 L632.377736,20.0528797 L618.086529,18.7959177 C617.493969,18.744019 617.056851,18.2332595 617.110395,17.6554114 C617.157774,17.1418038 617.577693,16.7481329 618.086529,16.7035127 L618.086529,16.7035127 L632.377412,15.4468671 C633.208813,14.629462 634.45559,14.0968671 635.869167,14.0968671 Z M599.561633,7.84541139 C602.064923,7.84541139 604.094424,9.48085443 604.094424,11.4982595 C604.094424,13.5156646 602.065248,15.1511076 599.561633,15.1511076 C598.148057,15.1511076 596.901604,14.6188291 596.070203,13.8011076 L596.070203,13.8011076 L581.778996,12.544462 C581.186436,12.4922468 580.749317,11.9818038 580.802862,11.4039557 C580.850241,10.8900316 581.27016,10.4963608 581.778996,10.452057 L581.778996,10.452057 L596.069879,9.19541139 C596.90128,8.37800633 598.147732,7.84541139 599.561633,7.84541139 Z M624.711355,3.8191672e-13 C627.214969,3.8191672e-13 629.244146,1.63575949 629.244146,3.65316456 C629.24447,5.67056962 627.214969,7.30601266 624.711355,7.30601266 C623.297778,7.30601266 622.051326,6.77341772 621.219924,5.95601266 L621.219924,5.95601266 L606.928717,4.69936709 C606.336157,4.6471519 605.899363,4.13670886 605.952583,3.55886076 C606.000287,3.04493671 606.419881,2.65126582 606.928717,2.60696203 L606.928717,2.60696203 L621.2196,1.35031646 C622.051001,0.532594937 623.297778,3.8191672e-13 624.711355,3.8191672e-13 Z" id="Combined-Shape"></path>
            </g>
        </g>
    </g>
</svg>